# xmcd
#
# Track frame offsets: 
#        150
#        17264
#        32355
#        52884
#        69593
#        86619
#        104690
#        123107
#        140264
#        157451
#        173553
#        189070
#        206939
#        221200
#        238764
#        250632
#        264275
#        278872
#        299832
#        317488
#
# Disc length: 4445 seconds
#
# Revision: 0
# Processed by: cddbd v1.5.2PL0 Copyright (c) Steve Scherf et al.
# Submitted via: ExactAudioCopy v1.0b3
#
DISCID=1f115b14
DTITLE=Various Artist - Country Hits - Latest and Greatest [CD 1,3)
DYEAR=2015
DGENRE=Country
TTITLE0=Wonderland - Need You Know
TTITLE1=Eli Young Band - Crazy Girl
TTITLE2=Sheryl Crow - All I Wanna Do
TTITLE3=The Band Perry - If I Die Young
TTITLE4=Ryan Adams - New York, New York
TTITLE5=Lee Ann Womack - I Hopy You Dance
TTITLE6=LeAnn Rimes - How Do I Live
TTITLE7=Billy Currington - Don't
TTITLE8=Chris LeDoux - Life Is A Highway
TTITLE9=Holly Williams - Keep The Change
TTITLE10=Clay Walker - She Won't Be Lonely Long
TTITLE11=Trisha Yearwood - She's In Love With The Boy
TTITLE12=Rodney Atkins - He's Mine
TTITLE13=David Nail - Whatever She's Got
TTITLE14=Kacey Musgraves - Stupid
TTITLE15=Steve Holy - Until The Rain Stops
TTITLE16=Heidi Newfield - Stay Up Late
TTITLE17=Sugarland - Stay
TTITLE18=Lucinda Williams - Are You Alright?
TTITLE19=Shania Twain - You're Still The One
EXTD=
EXTT0=
EXTT1=
EXTT2=
EXTT3=
EXTT4=
EXTT5=
EXTT6=
EXTT7=
EXTT8=
EXTT9=
EXTT10=
EXTT11=
EXTT12=
EXTT13=
EXTT14=
EXTT15=
EXTT16=
EXTT17=
EXTT18=
EXTT19=
PLAYORDER=
